<svg width="42" height="42" viewBox="0 0 42 42" fill="none" xmlns="http://www.w3.org/2000/svg">
<g id="Logo">
<path id="Fill 1" fill-rule="evenodd" clip-rule="evenodd" d="M37.796 21.015C37.796 21.861 36.002 21.571 35.798 24.834C35.645 27.264 33.875 29.047 31.148 29.832C31.172 29.471 31.187 29.102 31.187 28.715C31.187 25.677 29.91 22.942 27.872 21C29.91 19.057 31.187 16.323 31.187 13.284C31.187 12.9 31.172 12.53 31.148 12.171C33.875 12.956 35.645 14.739 35.798 17.167C36.002 20.431 37.796 20.141 37.796 20.988V21.015ZM24.339 36.297C21.075 36.501 21.365 38.296 20.519 38.296H20.491C19.645 38.296 19.936 36.501 16.673 36.297C14.244 36.144 12.461 34.374 11.676 31.646C12.033 31.67 12.4 31.684 12.784 31.684C15.822 31.684 18.558 30.407 20.5 28.366C22.442 30.407 25.178 31.684 28.218 31.684C28.605 31.684 28.975 31.669 29.335 31.645C28.551 34.374 26.768 36.144 24.339 36.297ZM5.203 24.834C4.998 21.571 3.204 21.861 3.204 21.015V20.988C3.204 20.141 4.998 20.431 5.203 17.167C5.355 14.736 7.13 12.951 9.863 12.167C9.839 12.528 9.824 12.899 9.824 13.284C9.824 16.323 11.1 19.057 13.138 21C11.1 22.942 9.824 25.677 9.824 28.715C9.824 29.103 9.839 29.474 9.863 29.835C7.13 29.051 5.355 27.267 5.203 24.834ZM23.338 22.468C23.403 21.993 23.448 21.512 23.448 21.018V20.984C23.448 20.491 23.402 20.008 23.337 19.531C24.293 19.871 25.193 20.374 26.001 21C25.193 21.626 24.295 22.13 23.338 22.468ZM19.037 23.84C19.513 23.905 19.995 23.951 20.489 23.951H20.522C21.012 23.951 21.491 23.906 21.962 23.843C21.625 24.795 21.123 25.688 20.5 26.494C19.877 25.687 19.376 24.793 19.037 23.84ZM17.662 19.535C17.597 20.01 17.552 20.492 17.552 20.984V21.018C17.552 21.51 17.597 21.99 17.662 22.464C16.71 22.125 15.815 21.624 15.01 21C15.815 20.376 16.71 19.875 17.662 19.535ZM20.522 18.049H20.489C19.996 18.049 19.514 18.094 19.038 18.159C19.377 17.208 19.877 16.314 20.5 15.508C21.122 16.313 21.624 17.207 21.962 18.158C21.489 18.094 21.011 18.049 20.522 18.049ZM22.466 20.973V21.001V21.029C22.466 21.621 22.397 22.206 22.272 22.777C21.704 22.9 21.122 22.967 20.533 22.967H20.506H20.478C19.886 22.967 19.3 22.9 18.727 22.775C18.603 22.204 18.536 21.62 18.536 21.029V21.001V20.973C18.536 20.382 18.603 19.797 18.728 19.225C19.3 19.1 19.886 19.032 20.478 19.032H20.506H20.533C21.121 19.032 21.704 19.1 22.272 19.223C22.397 19.796 22.466 20.381 22.466 20.973ZM11.228 13.718C11.228 13.066 11.277 12.445 11.359 11.853C11.95 11.771 12.567 11.723 13.216 11.723C15.658 11.723 17.988 12.849 19.701 14.584C18.86 15.701 18.236 16.986 17.885 18.383C16.488 18.734 15.203 19.358 14.085 20.2C12.353 18.488 11.228 16.158 11.228 13.718ZM11.228 28.283C11.228 25.842 12.353 23.512 14.085 21.8C15.203 22.642 16.488 23.266 17.885 23.617C18.236 25.016 18.859 26.301 19.701 27.419C17.988 29.153 15.658 30.279 13.216 30.279C12.567 30.279 11.95 30.232 11.36 30.149C11.277 29.557 11.228 28.936 11.228 28.283ZM29.782 28.283C29.782 28.935 29.734 29.556 29.651 30.148C29.058 30.232 28.437 30.279 27.785 30.279C25.343 30.279 23.012 29.153 21.299 27.419C22.14 26.302 22.764 25.017 23.115 23.62C24.517 23.27 25.805 22.644 26.925 21.8C28.658 23.512 29.782 25.842 29.782 28.283ZM29.782 13.718C29.782 16.158 28.658 18.488 26.925 20.2C25.805 19.356 24.516 18.731 23.114 18.38C22.763 16.984 22.14 15.7 21.299 14.584C23.012 12.849 25.343 11.723 27.785 11.723C28.437 11.723 29.058 11.771 29.652 11.854C29.734 12.447 29.782 13.067 29.782 13.718ZM16.673 5.703C19.936 5.499 19.645 3.705 20.491 3.705H20.519C21.365 3.705 21.075 5.499 24.339 5.703C26.768 5.856 28.552 7.627 29.337 10.357C28.975 10.334 28.605 10.318 28.218 10.318C25.178 10.318 22.442 11.596 20.5 13.636C18.558 11.596 15.822 10.318 12.784 10.318C12.4 10.318 12.033 10.333 11.675 10.357C12.461 7.627 14.244 5.856 16.673 5.703ZM38.348 16.423C36.936 13.495 34.767 11.263 30.949 10.556C30.245 6.737 28.011 4.566 25.083 3.153C21.498 1.424 21.536 0.5 20.506 0.5C19.475 0.5 19.513 1.424 15.927 3.153C13 4.566 10.767 6.736 10.062 10.555C6.238 11.258 4.066 13.493 2.653 16.423C0.923 20.009 0 19.971 0 21.001C0 22.032 0.923 21.993 2.653 25.579C4.066 28.509 6.238 30.744 10.062 31.448C10.768 35.266 13 37.435 15.927 38.847C19.513 40.577 19.475 41.5 20.506 41.5C21.536 41.5 21.498 40.577 25.083 38.847C28.011 37.435 30.243 35.265 30.949 31.446C34.767 30.74 36.936 28.507 38.348 25.579C40.077 21.993 41 22.032 41 21.001C41 19.971 40.077 20.009 38.348 16.423Z" fill="#F1E02B"/>
  </g>
</svg>
